<svg id="Layer_1" data-name="Layer 1" xmlns="http://www.w3.org/2000/svg" viewBox="0 0 1366 768"><defs><style>.cls-1{fill:#fff;}</style></defs><title>Artboard 1_svg</title><path class="cls-1" d="M336.67,250.33h692v268h-692Zm585.24,49.59c-.35-2.33-.56-5-1.19-7.56-2.45-9.93-10-12.56-17.31-5.29-12.55,12.48-17.46,28-15.13,45.54.56,4.23,2.34,8.25,6.92,9.55s8.13-.87,11.19-4C916.76,327.68,920.75,314.58,921.91,299.92Zm-1.6,99.2a61,61,0,0,0-1.49-8.39c-2.47-8.23-8.9-10.24-15.76-5.15-11.86,8.78-20.26,34.38-15.92,48.5,2.6,8.45,9.09,10.58,16.11,5.16a26.7,26.7,0,0,0,4.92-4.93C915.77,424.36,919.53,413,920.31,399.12ZM397.67,333.89c0-9.79.68-19-.24-28a41.62,41.62,0,0,0-5.71-16.63,8.15,8.15,0,0,0-14-.5c8.84,1.11,12.11,7.62,12.8,15,.92,9.86.61,19.85.55,29.78,0,3.82-.82,7.63-1.43,12.87,4.58-3.72,8.15-6.39,11.44-9.35,10.43-9.39,20.51-19.19,25.7-32.59a33.3,33.3,0,0,0,1.72-13.52,5.73,5.73,0,0,0-7-5.46c-1.87.45-3.06,3.74-4.73,6,9.64,3.89,10.93,7.5,6.1,15.31C416.36,317.32,407.6,325.86,397.67,333.89Zm235.2,111.29c10.27-7.26,19.22-15.24,26.35-24.86,4.69-6.31,8.27-13.55,11.55-20.74a13,13,0,0,0-.07-9.59c-1-2.35-4.53-3.61-6.93-5.35-1.36,2.14-2.73,4.28-4.21,6.62,7.92,2.86,10.18,6.14,7.72,11.32-6.06,12.75-16.39,21.81-26.61,30.66,0-7.48.14-14.58,0-21.67-.2-7.53-.92-15.06-5.25-21.55-4.2-6.27-10.94-7.09-15.42-1.78,9.31,1.3,11.88,8.26,13.45,15.89a40,40,0,0,1,1,9.41C634.09,423.81,633.44,434.06,632.87,445.18ZM390,445.75c4.86-4.06,9.28-7.43,13.34-11.2,10.14-9.45,20-19.27,24.33-32.91,1.12-3.48,1.68-7.76.65-11.11-.75-2.46-4.52-4-6.95-5.94l-4.55,6.53c9.56,3.64,11,7.41,6,15.18a113.73,113.73,0,0,1-11.73,14.83c-4,4.41-8.7,8.26-13.45,12.69,0-10.17.32-19.31-.1-28.41-.31-6.5-1.74-12.94-6.78-17.74-4.55-4.33-9.84-4.08-13.16.84,8.78.84,11.61,7.23,12.91,14.38a83.76,83.76,0,0,1,1.26,16.82C391.61,428,390.71,436.21,390,445.75ZM636.1,345.59a23.61,23.61,0,0,0,3.8-2.33c8.42-8.25,17.21-16.17,25-25,4.06-4.61,6.8-10.62,9.14-16.4a18.08,18.08,0,0,0,.56-11.05c-.67-2.31-4.06-4.39-6.67-5.27-.86-.3-3.09,3.45-4.88,5.56,10,4.83,11.53,8.75,5.33,16.66-6.92,8.84-15.16,16.65-22.87,24.87-.34.36-1.09.34-2,.6a75.71,75.71,0,0,0,.51-7.84c-.38-9.1-.31-18.28-1.7-27.23-.62-4-3.67-8.2-6.75-11.12a7,7,0,0,0-11.42,1.88c6.61.61,10.61,4.74,11.55,10.7a197.6,197.6,0,0,1,2.2,26.63C638,332.44,636.79,338.65,636.1,345.59ZM489.8,439.38c-2,7.46-4.23,14-11.51,16.51-2.43.83-5.58-.46-8.4-.77l.09-1.56c.85-.48,2-.76,2.48-1.49a10.18,10.18,0,0,0,1.65-4.31c.06-.53-1.78-1.87-2.49-1.71-1.45.33-3.29,1.11-4,2.28-1.89,3.23-.93,6.73,2.23,8.09a16.37,16.37,0,0,0,9.92,1.1c8.69-2.28,13.37-8.83,15.53-17.27,2.53-9.82,5-19.65,7.27-29.54.34-1.51-.72-3.34-1.14-5a38.35,38.35,0,0,0-3.91,3.61c-.58.69-.58,1.87-.83,2.84-1.67,6.61-3.24,13.25-5,19.83-1.46,5.37-7,9.68-10.89,8.16-5.18-2-4.29-6.59-3.24-10.65,1.32-5.14,3.18-10.13,4.66-15.23,1.7-5.84-2.24-10.61-7.65-9.41-5.05,1.12-9.25,7.6-8.42,13.94,1.41-3.07,2.09-5.95,3.82-7.91s4.38-2.78,6.63-4.11c.06,2.31.51,4.69.09,6.92-.48,2.58-1.9,5-2.57,7.53-1,3.67-2.19,7.41-2.34,11.15-.27,7.23,6,11.57,12.89,9.38A47.87,47.87,0,0,0,489.8,439.38Zm312.89-22.1,1.43,1c1.13-2.91,2-6,3.49-8.67.75-1.33,2.69-2,4.1-3a25.93,25.93,0,0,1,1.86,4.65,8.29,8.29,0,0,1-.56,3.4c-1.81,7.44-3.77,14.83-5.37,22.31-.33,1.56.63,3.4,1,5.11,1.4-1.32,3.56-2.39,4.05-4,1.93-6.18,3-12.61,5-18.78a24.78,24.78,0,0,1,4.83-8.5c2.8-3.22,6.89-5.82,11-3.73,4.53,2.28,2.22,7,1.83,10.83a10.17,10.17,0,0,1-.59,1.9c-1.49,4.59-3.41,9.09-4.26,13.79a8.8,8.8,0,0,0,2.22,6.94c1.42,1.31,4.72,1.52,6.83.93,4.39-1.22,7.7-7.48,7.35-13.29-2,3.62-3.4,6.95-5.53,9.74-1,1.28-3.36,1.48-5.11,2.17a35.74,35.74,0,0,1-.71-5.1,12.44,12.44,0,0,1,1-3.32c1.57-5.08,3.46-10.08,4.63-15.25,1.8-7.9-3.54-13.33-11.43-11.39-3.84.94-7.31,3.43-10.92,5.2-1.19-3.44-3.91-6.42-8.27-5.39C804.15,406.38,804.37,412.54,802.69,417.28Zm-13.4-74.79c11.91.07,23.77-13.62,22-25.41-1.26-8.44-6.87-12.74-15.43-11.83-10.31,1.1-20.81,13.73-20,24.06C776.48,337.37,781.66,342.45,789.29,342.49Zm-285.6-12.55-1.32-.76a18.25,18.25,0,0,1-1.93,3.73c-2.1,2.49-4.05,5.44-6.75,7-3.93,2.32-8.07-.2-7.27-4.59a190.91,190.91,0,0,1,6.38-24.5c1.18-3.65,4.64-4.65,8.91-3.28-.89,1-1.86,1.64-1.84,2.22a37.63,37.63,0,0,0,.75,5.12c1.69-.68,4-.89,4.94-2.13,2.13-2.71,0-6.39-4-7.38-5.06-1.28-8.52,1.34-11.44,5-5-5.42-8.68-6.5-13.7-4.2s-8.55,7.76-7.79,12.87a26.06,26.06,0,0,1,2.23-4.3c2-2.4,3.77-5.23,6.31-6.82,4.39-2.74,8.61-.26,7.78,4.72a167.9,167.9,0,0,1-5.7,23.18c-1.23,3.89-4.63,5.89-9.48,4.22.78-1,1.81-1.68,1.86-2.46a25.71,25.71,0,0,0-.55-4.81c-1.64.43-3.75.36-4.8,1.38-2.38,2.29-1,6.24,2.39,7.6,5.37,2.14,9.31-.21,12.73-4.79,3.08,4.81,7.28,6.83,12.5,4.86C499.44,339.76,502.29,335.33,503.69,329.94ZM698.22,434.82c-.71-3.77-1.05-7.61-2.21-11.19-1.81-5.56-6-8.3-11.67-8.29s-9.72,2.75-11.67,8.34a34.27,34.27,0,0,0-.19,22.49c2,5.94,5.91,8.68,11.91,8.66s10.18-2.85,11.89-8.69C697.34,442.53,697.59,438.67,698.22,434.82Zm41.92,1.91c.94-.56,1.73-.76,2-1.26a21.62,21.62,0,0,0,2.25-4.89c.06-.24-2.44-1.84-3-1.51-1.55.85-3.46,2.23-3.86,3.76-1.07,4,1.32,6.73,4.89,8.15a17.91,17.91,0,0,0,16.34-1.22c4.56-2.7,7.52-6.89,6.79-12.41s-5-7.47-9.95-8.2a3,3,0,0,1-1.44-.38c-1.85-1.56-5.34-3.55-5.1-4.74a10.82,10.82,0,0,1,4.78-6.62c3.67-2,7.69-1.36,11.11,2.19-.79.64-1.65,1-1.93,1.64a12.11,12.11,0,0,0-1,4c0,.31,1.51,1.21,1.93,1,1.24-.6,2.87-1.38,3.29-2.49,1.33-3.55-.4-6.1-3.55-7.76-4.53-2.38-11.4-1.51-15.48,2-3.2,2.78-5,6.27-4.17,10.59.83,4,4.15,5.32,7.69,6.17,1.13.27,2.49.22,3.36.85,2,1.45,5.12,3.06,5.35,4.91.28,2.3-1.31,5.51-3.12,7.25C753.11,441.75,745,441.1,740.14,436.73Zm-312.18-2c.67,4.1.9,7.79,1.93,11.23,1.81,6.08,6.08,8.93,12.27,8.86,5.92-.06,9.67-2.85,11.63-9a35.84,35.84,0,0,0-.33-22.5c-1.74-5.23-6-8-11.41-8s-9.7,2.38-11.55,7.69C429.17,426.88,428.73,431,428,434.74Zm392-97.93c.81-.3,1.81-.37,2.14-.87a19.18,19.18,0,0,0,2.37-4.91c.09-.28-2.39-2-3-1.65-1.57.82-3.46,2.15-3.94,3.69-1.16,3.73.91,6.36,4.21,8,5.69,2.89,15.5,1.87,19.48-3.08a18.71,18.71,0,0,0,3.95-11.11c-.07-4.36-4.35-6.28-8.46-7.25-1.29-.3-2.63-.44-3.88-.85-4.63-1.51-5.59-5.66-2.2-9.24s9.43-3.57,14.06.3c-.58.56-1.36,1-1.65,1.64a12.21,12.21,0,0,0-1.11,4,3.13,3.13,0,0,0,2.38,1c1.21-.63,3.15-2.18,3-2.73-.88-2.59-1.75-6-3.77-7.22-6.55-4.13-16.33-.18-19,7.09-1.86,5-.17,8.93,4.82,10.8,2,.75,4.17,1.08,6.22,1.74,6,1.93,7.06,6.95,2.55,11.41S824.92,341.83,819.91,336.81ZM428,335.55c.62,3.76.85,7.44,1.89,10.89a11.78,11.78,0,0,0,11.84,8.89c5.84.05,10-2.79,11.94-8.69a35.66,35.66,0,0,0-.13-22.51,12.08,12.08,0,0,0-11.61-8.6A11.91,11.91,0,0,0,430,324.37C428.92,328,428.66,331.83,428,335.55Zm274.1.52c-.78-4.15-1.16-8.16-2.31-11.92a12.23,12.23,0,0,0-23.3-.24,33.81,33.81,0,0,0,0,23.42c2,5.47,6.25,8.12,11.94,8,5.43-.12,9.41-2.77,11.23-8.22C700.93,343.52,701.36,339.7,702.12,336.07ZM878,279.75c-14.85,12.11-19,28.49-17.88,46.94.94,15.82,10.41,32.74,18,35C859.65,334.57,859.32,307.32,878,279.75Zm-.13,99.41c-13.25,5.73-21.93,29.76-18.94,50.44,2.23,15.37,11.18,30.73,18.38,31.54C858,435.32,858,408,877.85,379.16Zm52-16.68c13.93-7,22.26-31.75,18.45-52.63-2.67-14.66-11.3-28.84-17.94-29.49C949.57,309.39,949.57,332.54,929.87,362.48Zm-.52,17.26q28,40.81-.14,81.95c11.28-5.5,19.27-24.91,18.44-44.71C946.91,399.26,937.37,382.49,929.35,379.74ZM768.64,309.66c-.42.26-.95.41-1.15.75-1,1.69-1.88,3.42-2.81,5.14,1.23.57,3.13,1.93,3.57,1.55,1.47-1.24,3.14-3,3.41-4.74.58-3.79-3-6.77-7.86-7.17-10.57-.86-21.07,8-23.42,19.81-1.6,8.05,2.24,15.24,9.13,17.09,8.22,2.21,19.67-2.82,22.64-11.26-2.11,2-3,3.46-4.35,4.1-4.25,2.07-8.48,4.5-13,5.57s-7.93-1.64-8.33-6.33c-.73-8.8,1.54-16.93,7.61-23.48C758.53,305.89,764,305.75,768.64,309.66Zm26.47,118.63c-1.65,3.23-2.64,6.31-4.57,8.58-1.36,1.62-4,2.15-6.07,3.16a54.16,54.16,0,0,1-.33-6.09,12.07,12.07,0,0,1,1.17-3.26c2-5.44,4.59-10.77,5.87-16.39a10.56,10.56,0,0,0-2.34-8.29c-2.59-2.74-6.38-1.5-9,.89-3.14,2.89-5.23,6.5-4.82,11.06,1.7-2.42,2.53-5.41,4.35-7.54,1.51-1.75,4.2-2.47,6.36-3.65a36.43,36.43,0,0,1,.24,6.5c-.26,1.93-1.27,3.76-2,5.63-1.69,4.51-3.84,8.91-4.91,13.56a10.8,10.8,0,0,0,1.5,7.74c.93,1.37,4.21,1.95,6.22,1.6C791.67,441,795.69,434.32,795.11,428.29Zm-206-15.14c-2.86-3-50.69-3.37-54.72-.7C536.94,414.47,582.39,415.19,589.15,413.15Zm-51.66-83.38h56.09C589.26,326.43,541,326.57,537.49,329.77Zm.57-16.9c3.15,2.19,50.42,2.43,54.54.28C590.05,310.66,541.67,310.42,538.06,312.87Zm-3.39,114.64-.45,1.6c1.17.41,2.33,1.16,3.5,1.17q24,.12,47.9,0c1.16,0,2.32-1,3.48-1.53l-.45-1.22Zm256.17-32.33c1.89-2.42,3.49-3.79,4-5.49.23-.73-1.72-2.16-2.67-3.27-1.47,1.33-3.25,2.48-4.24,4.11C787.65,391.08,789.35,392.85,790.84,395.18Z"/><path d="M921.91,299.92c-1.16,14.66-5.15,27.76-15.52,38.27-3.06,3.1-6.72,5.24-11.19,4s-6.36-5.32-6.92-9.55c-2.33-17.58,2.58-33.06,15.13-45.54,7.3-7.27,14.86-4.64,17.31,5.29C921.35,294.92,921.56,297.59,921.91,299.92ZM894.7,314.5c-.52,6.71-1.33,13.39-1.36,20.08,0,2,1.89,5.28,3.45,5.64,1.78.4,4.8-1.28,6.15-3,5.26-6.55,8-14.32,9.71-22.75Zm19.8-3.22c.47-7,1.15-13.85,1.23-20.72,0-1.74-1.56-4.48-3-5s-4.39.58-5.59,1.92c-6,6.69-8.67,14.91-10.68,23.79Z"/><path d="M920.31,399.12c-.78,13.88-4.54,25.24-12.14,35.19a26.7,26.7,0,0,1-4.92,4.93c-7,5.42-13.51,3.29-16.11-5.16-4.34-14.12,4.06-39.72,15.92-48.5,6.86-5.09,13.29-3.08,15.76,5.15A61,61,0,0,1,920.31,399.12ZM893.6,411.17c6.41,0,10.91.25,15.35-.16a5.22,5.22,0,0,0,3.73-3.17,75.78,75.78,0,0,0,1.79-15.26c0-2.58-2.1-5.14-3.25-7.71-2.54,1.5-6.15,2.38-7.42,4.6C900.09,396,897.31,403.08,893.6,411.17Zm17.5,2.69c-5.37,0-9.85-.19-14.3.12-1.18.08-3.08,1.56-3.23,2.6a141.57,141.57,0,0,0-1.73,17.77c0,1.92,1.69,5.27,3,5.48,1.95.32,4.93-1,6.3-2.65C906.62,430.7,909.36,422.91,911.1,413.86Z"/><path d="M397.67,333.89c9.93-8,18.69-16.57,25.22-27.15,4.83-7.81,3.54-11.42-6.1-15.31,1.67-2.23,2.86-5.52,4.73-6a5.73,5.73,0,0,1,7,5.46,33.3,33.3,0,0,1-1.72,13.52c-5.19,13.4-15.27,23.2-25.7,32.59-3.29,3-6.86,5.63-11.44,9.35.61-5.24,1.41-9.05,1.43-12.87.06-9.93.37-19.92-.55-29.78-.69-7.34-4-13.85-12.8-15a8.15,8.15,0,0,1,14,.5,41.62,41.62,0,0,1,5.71,16.63C398.35,314.92,397.67,324.1,397.67,333.89Z"/><path d="M632.87,445.18c.57-11.12,1.22-21.37,1.56-31.64a40,40,0,0,0-1-9.41c-1.57-7.63-4.14-14.59-13.45-15.89,4.48-5.31,11.22-4.49,15.42,1.78,4.33,6.49,5,14,5.25,21.55.18,7.09,0,14.19,0,21.67,10.22-8.85,20.55-17.91,26.61-30.66,2.46-5.18.2-8.46-7.72-11.32,1.48-2.34,2.85-4.48,4.21-6.62,2.4,1.74,5.89,3,6.93,5.35a13,13,0,0,1,.07,9.59c-3.28,7.19-6.86,14.43-11.55,20.74C652.09,429.94,643.14,437.92,632.87,445.18Z"/><path d="M390,445.75c.69-9.54,1.59-17.78,1.78-26a83.76,83.76,0,0,0-1.26-16.82c-1.3-7.15-4.13-13.54-12.91-14.38,3.32-4.92,8.61-5.17,13.16-.84,5,4.8,6.47,11.24,6.78,17.74.42,9.1.1,18.24.1,28.41,4.75-4.43,9.41-8.28,13.45-12.69a113.73,113.73,0,0,0,11.73-14.83c5-7.77,3.55-11.54-6-15.18l4.55-6.53c2.43,2,6.2,3.48,6.95,5.94,1,3.35.47,7.63-.65,11.11-4.37,13.64-14.19,23.46-24.33,32.91C399.3,438.32,394.88,441.69,390,445.75Z"/><path d="M636.1,345.59c.69-6.94,1.9-13.15,1.78-19.34a197.6,197.6,0,0,0-2.2-26.63c-.94-6-4.94-10.09-11.55-10.7A7,7,0,0,1,635.55,287c3.08,2.92,6.13,7.12,6.75,11.12,1.39,8.95,1.32,18.13,1.7,27.23a75.71,75.71,0,0,1-.51,7.84c.91-.26,1.66-.24,2-.6,7.71-8.22,16-16,22.87-24.87,6.2-7.91,4.65-11.83-5.33-16.66,1.79-2.11,4-5.86,4.88-5.56,2.61.88,6,3,6.67,5.27a18.08,18.08,0,0,1-.56,11.05c-2.34,5.78-5.08,11.79-9.14,16.4-7.77,8.83-16.56,16.75-25,25A23.61,23.61,0,0,1,636.1,345.59Z"/><path d="M489.8,439.38a47.87,47.87,0,0,1-5.13,2.36c-6.94,2.19-13.16-2.15-12.89-9.38.15-3.74,1.36-7.48,2.34-11.15.67-2.56,2.09-4.95,2.57-7.53.42-2.23,0-4.61-.09-6.92-2.25,1.33-5,2.24-6.63,4.11s-2.41,4.84-3.82,7.91c-.83-6.34,3.37-12.82,8.42-13.94,5.41-1.2,9.35,3.57,7.65,9.41-1.48,5.1-3.34,10.09-4.66,15.23-1.05,4.06-1.94,8.63,3.24,10.65,3.89,1.52,9.43-2.79,10.89-8.16,1.79-6.58,3.36-13.22,5-19.83.25-1,.25-2.15.83-2.84a38.35,38.35,0,0,1,3.91-3.61c.42,1.68,1.48,3.51,1.14,5-2.25,9.89-4.74,19.72-7.27,29.54-2.16,8.44-6.84,15-15.53,17.27a16.37,16.37,0,0,1-9.92-1.1c-3.16-1.36-4.12-4.86-2.23-8.09.68-1.17,2.52-1.95,4-2.28.71-.16,2.55,1.18,2.49,1.71a10.18,10.18,0,0,1-1.65,4.31c-.47.73-1.63,1-2.48,1.49l-.09,1.56c2.82.31,6,1.6,8.4.77C485.57,453.4,487.83,446.84,489.8,439.38Z"/><path d="M802.69,417.28c1.68-4.74,1.46-10.9,7.91-12.43,4.36-1,7.08,1.95,8.27,5.39,3.61-1.77,7.08-4.26,10.92-5.2,7.89-1.94,13.23,3.49,11.43,11.39-1.17,5.17-3.06,10.17-4.63,15.25a12.44,12.44,0,0,0-1,3.32,35.74,35.74,0,0,0,.71,5.1c1.75-.69,4.13-.89,5.11-2.17,2.13-2.79,3.54-6.12,5.53-9.74.35,5.81-3,12.07-7.35,13.29-2.11.59-5.41.38-6.83-.93a8.8,8.8,0,0,1-2.22-6.94c.85-4.7,2.77-9.2,4.26-13.79a10.17,10.17,0,0,0,.59-1.9c.39-3.82,2.7-8.55-1.83-10.83-4.15-2.09-8.24.51-11,3.73a24.78,24.78,0,0,0-4.83,8.5c-2,6.17-3.08,12.6-5,18.78-.49,1.6-2.65,2.67-4.05,4-.37-1.71-1.33-3.55-1-5.11,1.6-7.48,3.56-14.87,5.37-22.31a8.29,8.29,0,0,0,.56-3.4,25.93,25.93,0,0,0-1.86-4.65c-1.41,1-3.35,1.63-4.1,3-1.5,2.7-2.36,5.76-3.49,8.67Z"/><path d="M789.29,342.49c-7.63,0-12.81-5.12-13.43-13.18-.8-10.33,9.7-23,20-24.06,8.56-.91,14.17,3.39,15.43,11.83C813.06,328.87,801.2,342.56,789.29,342.49Zm16.56-27.85c-1-1.67-2-5.48-4.31-6.48-2.49-1.1-6.7-.56-9.12.95a19.89,19.89,0,0,0-6.81,8.24c-1.75,3.68-2.52,7.89-3.3,11.95s-.38,8.37,3.71,10.56c4.26,2.27,8.09.21,11.3-2.82C803.31,331.36,804.27,323.66,805.85,314.64Z"/><path d="M503.69,329.94c-1.4,5.39-4.25,9.82-9.76,11.9-5.22,2-9.42,0-12.5-4.86-3.42,4.58-7.36,6.93-12.73,4.79-3.43-1.36-4.77-5.31-2.39-7.6,1.05-1,3.16-.95,4.8-1.38a25.71,25.71,0,0,1,.55,4.81c-.05.78-1.08,1.49-1.86,2.46,4.85,1.67,8.25-.33,9.48-4.22a167.9,167.9,0,0,0,5.7-23.18c.83-5-3.39-7.46-7.78-4.72-2.54,1.59-4.34,4.42-6.31,6.82a26.06,26.06,0,0,0-2.23,4.3c-.76-5.11,2.84-10.58,7.79-12.87s8.68-1.22,13.7,4.2c2.92-3.66,6.38-6.28,11.44-5,3.93,1,6.1,4.67,4,7.38-1,1.24-3.25,1.45-4.94,2.13a37.63,37.63,0,0,1-.75-5.12c0-.58.95-1.19,1.84-2.22-4.27-1.37-7.73-.37-8.91,3.28a190.91,190.91,0,0,0-6.38,24.5c-.8,4.39,3.34,6.91,7.27,4.59,2.7-1.58,4.65-4.53,6.75-7a18.25,18.25,0,0,0,1.93-3.73Z"/><path d="M698.22,434.82c-.63,3.85-.88,7.71-1.94,11.32-1.71,5.84-6,8.68-11.89,8.69s-9.95-2.72-11.91-8.66a34.27,34.27,0,0,1,.19-22.49c2-5.59,6-8.34,11.67-8.34s9.86,2.73,11.67,8.29C697.17,427.21,697.51,431.05,698.22,434.82Zm-5.23.09c-.43-4-.63-8-1.34-11.85s-3.47-6.05-7.42-6.1-6.86,2.27-7.08,5.79a195.23,195.23,0,0,0,0,24.31c.24,3.78,3.36,6.23,7.33,6.15s6.54-2.45,7.17-6.38S692.56,438.93,693,434.91Z"/><path d="M740.14,436.73c4.9,4.37,13,5,17.14,1,1.81-1.74,3.4-4.95,3.12-7.25-.23-1.85-3.33-3.46-5.35-4.91-.87-.63-2.23-.58-3.36-.85-3.54-.85-6.86-2.14-7.69-6.17-.88-4.32,1-7.81,4.17-10.59,4.08-3.54,11-4.41,15.48-2,3.15,1.66,4.88,4.21,3.55,7.76-.42,1.11-2.05,1.89-3.29,2.49-.42.2-2-.7-1.93-1a12.11,12.11,0,0,1,1-4c.28-.63,1.14-1,1.93-1.64-3.42-3.55-7.44-4.2-11.11-2.19A10.82,10.82,0,0,0,749,414c-.24,1.19,3.25,3.18,5.1,4.74a3,3,0,0,0,1.44.38c5,.73,9.23,2.71,9.95,8.2s-2.23,9.71-6.79,12.41A17.91,17.91,0,0,1,742.39,441c-3.57-1.42-6-4.11-4.89-8.15.4-1.53,2.31-2.91,3.86-3.76.6-.33,3.1,1.27,3,1.51a21.62,21.62,0,0,1-2.25,4.89C741.87,436,741.08,436.17,740.14,436.73Z"/><path d="M428,434.74c.77-3.7,1.21-7.86,2.54-11.71,1.85-5.31,6-7.76,11.55-7.69s9.67,2.78,11.41,8a35.84,35.84,0,0,1,.33,22.5c-2,6.13-5.71,8.92-11.63,9-6.19.07-10.46-2.78-12.27-8.86C428.86,442.53,428.63,438.84,428,434.74Zm22.33.76c-.24-3.87-.28-7.37-.73-10.82-.57-4.41-2.89-7.61-7.67-7.7-4.54-.09-7.35,2.77-7.53,7.06a222,222,0,0,0,.19,22.34c.23,4.1,3,6.74,7.26,6.83s6.76-2.72,7.47-6.68C450,442.79,450,438.94,450.29,435.5Z"/><path d="M819.91,336.81c5,5,13.56,5.26,18.13.74s3.41-9.48-2.55-11.41c-2-.66-4.21-1-6.22-1.74-5-1.87-6.68-5.8-4.82-10.8,2.7-7.27,12.48-11.22,19-7.09,2,1.27,2.89,4.63,3.77,7.22.18.55-1.76,2.1-3,2.73a3.13,3.13,0,0,1-2.38-1,12.21,12.21,0,0,1,1.11-4c.29-.65,1.07-1.08,1.65-1.64C840,306,834,306,830.6,309.58s-2.43,7.73,2.2,9.24c1.25.41,2.59.55,3.88.85,4.11,1,8.39,2.89,8.46,7.25A18.71,18.71,0,0,1,841.19,338c-4,5-13.79,6-19.48,3.08-3.3-1.68-5.37-4.31-4.21-8,.48-1.54,2.37-2.87,3.94-3.69.59-.31,3.07,1.37,3,1.65a19.18,19.18,0,0,1-2.37,4.91C821.72,336.44,820.72,336.51,819.91,336.81Z"/><path d="M428,335.55c.64-3.72.9-7.58,2-11.18A11.91,11.91,0,0,1,442,315.53a12.08,12.08,0,0,1,11.61,8.6,35.66,35.66,0,0,1,.13,22.51c-1.93,5.9-6.1,8.74-11.94,8.69a11.78,11.78,0,0,1-11.84-8.89C428.87,343,428.64,339.31,428,335.55Zm22.27-.41a109.13,109.13,0,0,0-1-11.19c-.71-3.95-3.16-6.67-7.51-6.62s-7.13,2.54-7.32,6.68c-.34,7.59-.31,15.22.09,22.81.21,4.13,3,6.6,7.32,6.64,4.74,0,6.86-3,7.53-7.15C450,342.71,450,339,450.29,335.14Z"/><path d="M702.12,336.07c-.76,3.63-1.19,7.45-2.39,11-1.82,5.45-5.8,8.1-11.23,8.22-5.69.13-9.91-2.52-11.94-8a33.81,33.81,0,0,1,0-23.42,12.23,12.23,0,0,1,23.3.24C701,327.91,701.34,331.92,702.12,336.07Zm-5.37-.29c-.38-4.08-.5-8.09-1.19-12s-3.29-6.56-7.61-6.47c-4.06.09-6.92,2.53-7.14,6.34a209.06,209.06,0,0,0,0,23.35c.22,3.76,2.89,6.29,7,6.47,4.45.2,6.86-2.42,7.64-6.37C696.25,343.37,696.36,339.52,696.75,335.78Z"/><path d="M878,279.75c-18.66,27.57-18.33,54.82.17,81.91-7.64-2.23-17.11-19.15-18-35C859,308.24,863.13,291.86,878,279.75Z"/><path d="M877.85,379.16c-19.81,28.87-19.85,56.16-.56,82-7.2-.81-16.15-16.17-18.38-31.54C855.92,408.92,864.6,384.89,877.85,379.16Z"/><path d="M929.87,362.48c19.7-29.94,19.7-53.09.51-82.12,6.64.65,15.27,14.83,17.94,29.49C952.13,330.73,943.8,355.48,929.87,362.48Z"/><path d="M929.35,379.74c8,2.75,17.56,19.52,18.3,37.24.83,19.8-7.16,39.21-18.44,44.71Q957.38,420.61,929.35,379.74Z"/><path d="M768.64,309.66c-4.67-3.91-10.11-3.77-14.56,1-6.07,6.55-8.34,14.68-7.61,23.48.4,4.69,3.68,7.42,8.33,6.33s8.75-3.5,13-5.57c1.31-.64,2.24-2.06,4.35-4.1-3,8.44-14.42,13.47-22.64,11.26-6.89-1.85-10.73-9-9.13-17.09,2.35-11.79,12.85-20.67,23.42-19.81,4.83.4,8.44,3.38,7.86,7.17-.27,1.76-1.94,3.5-3.41,4.74-.44.38-2.34-1-3.57-1.55.93-1.72,1.83-3.45,2.81-5.14C767.69,310.07,768.22,309.92,768.64,309.66Z"/><path d="M795.11,428.29c.58,6-3.44,12.67-8.29,13.5-2,.35-5.29-.23-6.22-1.6a10.8,10.8,0,0,1-1.5-7.74c1.07-4.65,3.22-9.05,4.91-13.56.7-1.87,1.71-3.7,2-5.63a36.43,36.43,0,0,0-.24-6.5c-2.16,1.18-4.85,1.9-6.36,3.65-1.82,2.13-2.65,5.12-4.35,7.54-.41-4.56,1.68-8.17,4.82-11.06,2.61-2.39,6.4-3.63,9-.89a10.56,10.56,0,0,1,2.34,8.29c-1.28,5.62-3.83,10.95-5.87,16.39a12.07,12.07,0,0,0-1.17,3.26,54.16,54.16,0,0,0,.33,6.09c2.07-1,4.71-1.54,6.07-3.16C792.47,434.6,793.46,431.52,795.11,428.29Z"/><path d="M589.15,413.15c-6.76,2-52.21,1.32-54.72-.7C538.46,409.78,586.29,410.17,589.15,413.15Z"/><path d="M537.49,329.77c3.55-3.2,51.77-3.34,56.09,0Z"/><path d="M538.06,312.87c3.61-2.45,52-2.21,54.54.28C588.48,315.3,541.21,315.06,538.06,312.87Z"/><path d="M534.67,427.51h54l.45,1.22c-1.16.53-2.32,1.52-3.48,1.53q-24,.15-47.9,0c-1.17,0-2.33-.76-3.5-1.17Z"/><path d="M790.84,395.18c-1.49-2.33-3.19-4.1-2.86-4.65,1-1.63,2.77-2.78,4.24-4.11.95,1.11,2.9,2.54,2.67,3.27C794.33,391.39,792.73,392.76,790.84,395.18Z"/><path class="cls-1" d="M894.7,314.5h17.95c-1.71,8.43-4.45,16.2-9.71,22.75-1.35,1.69-4.37,3.37-6.15,3-1.56-.36-3.46-3.65-3.45-5.64C893.37,327.89,894.18,321.21,894.7,314.5Z"/><path class="cls-1" d="M914.5,311.28h-18c2-8.88,4.72-17.1,10.68-23.79,1.2-1.34,4.08-2.43,5.59-1.92s3,3.25,3,5C915.65,297.43,915,304.29,914.5,311.28Z"/><path class="cls-1" d="M893.6,411.17c3.71-8.09,6.49-15.16,10.2-21.7,1.27-2.22,4.88-3.1,7.42-4.6,1.15,2.57,3.22,5.13,3.25,7.71a75.78,75.78,0,0,1-1.79,15.26A5.22,5.22,0,0,1,909,411C904.51,411.42,900,411.17,893.6,411.17Z"/><path class="cls-1" d="M911.1,413.86c-1.74,9.05-4.48,16.84-9.94,23.32-1.37,1.62-4.35,3-6.3,2.65-1.33-.21-3.06-3.56-3-5.48a141.57,141.57,0,0,1,1.73-17.77c.15-1,2-2.52,3.23-2.6C901.25,413.67,905.73,413.86,911.1,413.86Z"/><path class="cls-1" d="M805.85,314.64c-1.58,9-2.54,16.72-8.53,22.4-3.21,3-7,5.09-11.3,2.82-4.09-2.19-4.5-6.45-3.71-10.56s1.55-8.27,3.3-11.95a19.89,19.89,0,0,1,6.81-8.24c2.42-1.51,6.63-2.05,9.12-.95C803.81,309.16,804.83,313,805.85,314.64Z"/><path class="cls-1" d="M693,434.91c-.43,4-.68,8-1.3,11.92s-3.23,6.3-7.17,6.38-7.09-2.37-7.33-6.15a195.23,195.23,0,0,1,0-24.31c.22-3.52,3.26-5.83,7.08-5.79s6.7,2.18,7.42,6.1S692.56,431,693,434.91Z"/><path class="cls-1" d="M450.29,435.5c-.29,3.44-.34,7.29-1,11-.71,4-3.17,6.77-7.47,6.68s-7-2.73-7.26-6.83a222,222,0,0,1-.19-22.34c.18-4.29,3-7.15,7.53-7.06,4.78.09,7.1,3.29,7.67,7.7C450,428.13,450.05,431.63,450.29,435.5Z"/><path class="cls-1" d="M450.29,335.14c-.27,3.88-.28,7.57-.86,11.17-.67,4.1-2.79,7.19-7.53,7.15-4.34,0-7.11-2.51-7.32-6.64-.4-7.59-.43-15.22-.09-22.81.19-4.14,3-6.63,7.32-6.68s6.8,2.67,7.51,6.62A109.13,109.13,0,0,1,450.29,335.14Z"/><path class="cls-1" d="M696.75,335.78c-.39,3.74-.5,7.59-1.25,11.32-.78,3.95-3.19,6.57-7.64,6.37-4.14-.18-6.81-2.71-7-6.47a209.06,209.06,0,0,1,0-23.35c.22-3.81,3.08-6.25,7.14-6.34,4.32-.09,6.9,2.43,7.61,6.47S696.37,331.7,696.75,335.78Z"/></svg>